<svg version="1.1" xmlns="http://www.w3.org/2000/svg" viewBox="0 0 479.82447601994875 291.117070543445"
  width="959.6489520398975" height="582.23414108689">
  <g>
    <g
      transform="translate(486.5234375 35.55847679344497) rotate(344.5076219857322 -100.20525363646448 46.94507359825076)">
      <path
        d="M-0.3666428860276937 -0.6187514428049325 C-33.53735923928519 15.313280256216725, -166.5500443196545 78.71624491574863, -200.04386438690125 94.50889863930642"
        stroke="#888" stroke-width="1.5" fill="none" stroke-dasharray="12 8"></path>
    </g>
    <g
      transform="translate(486.5234375 35.55847679344497) rotate(344.5076219857322 -100.20525363646448 46.94507359825076)">
      <path
        d="M-180.00525964357305 73.56848502412781 C-182.8363889143217 75.9535007848362, -187.98671599282036 82.42943324537795, -199.27292785868048 96.38605238422751"
        stroke="#888" stroke-width="1.5" fill="none"></path>
    </g>
    <g
      transform="translate(486.5234375 35.55847679344497) rotate(344.5076219857322 -100.20525363646448 46.94507359825076)">
      <path
        d="M-171.20756272895835 92.10818651537136 C-175.7631489732575 90.47961624109081, -182.80529887576012 92.96884277487007, -199.27292785868048 96.38605238422751"
        stroke="#888" stroke-width="1.5" fill="none"></path>
    </g>
  </g>
  <g transform="translate(10 180.94519554344498) rotate(0 208.8359375 50.0859375)">
    <path
      d="M0 0 C111.93026070388007 0, 223.86052140776013 0, 417.671875 0 M417.671875 0 C417.671875 32.46535199973296, 417.671875 64.93070399946592, 417.671875 100.171875 M417.671875 100.171875 C332.5181407659038 100.171875, 247.36440653180762 100.171875, 0 100.171875 M0 100.171875 C0 66.53336853585643, 0 32.89486207171285, 0 0"
      stroke="#888" stroke-width="1.5" fill="none" stroke-dasharray="12 8"></path>
  </g>
</svg>
