<svg width="115" height="115" viewBox="0 0 115 115" fill="none" xmlns="http://www.w3.org/2000/svg">
<path fill-rule="evenodd" clip-rule="evenodd" d="M49 0C22.4903 0 1 21.4903 1 48C1 74.5097 22.4903 96 49 96C55.3727 96 61.4553 94.7581 67.0191 92.5032C66.7064 91.4797 66.3753 90.244 65.9767 88.7564L65.9767 88.7563L65.4177 86.67C60.3744 88.8139 54.8257 90 49 90C25.804 90 7 71.196 7 48C7 24.804 25.804 6 49 6C72.196 6 91 24.804 91 48C91 52.9545 90.1421 57.7087 88.5668 62.1221L91.7563 62.9767C92.7352 63.239 93.605 63.4721 94.3771 63.6899C96.0768 58.7733 97 53.4945 97 48C97 21.4903 75.5097 0 49 0Z" fill="black"/>
<path d="M60.127 66.925C58.9501 62.5327 58.3617 60.3366 58.9439 58.8199C59.4517 57.497 60.497 56.4517 61.8199 55.9439C63.3366 55.3617 65.5327 55.9501 69.925 57.127L91.7563 62.9767C96.1485 64.1536 98.3446 64.742 99.367 66.0046C100.259 67.1058 100.641 68.5338 100.42 69.9334C100.166 71.5379 98.5579 73.1456 95.3426 76.3609L79.3609 92.3426C76.1456 95.5579 74.5379 97.1656 72.9333 97.4197C71.5337 97.6414 70.1058 97.2588 69.0046 96.367C67.742 95.3446 67.1536 93.1485 65.9767 88.7563L60.127 66.925Z" stroke="black" stroke-width="6" stroke-linejoin="round"/>
<path fill-rule="evenodd" clip-rule="evenodd" d="M15 77.4799C15 84.2406 15.007 89.6274 15.5759 93.8588C16.1698 98.2762 17.4251 101.881 20.2721 104.728C23.1191 107.575 26.7238 108.83 31.1412 109.424C35.4258 110 40.895 110 47.7756 110H48H78H78.2244C85.105 110 90.5742 110 94.8588 109.424C99.2762 108.83 102.881 107.575 105.728 104.728C108.575 101.881 109.83 98.2762 110.424 93.8588C111 89.5742 111 84.105 111 77.2244V77V47V46.7756C111 39.895 111 34.4258 110.424 30.1412C109.83 25.7238 108.575 22.1191 105.728 19.2721C102.881 16.4251 99.2762 15.1698 94.8588 14.5759C90.6274 14.007 85.2406 14 78.4799 14C80.5813 15.8236 82.5119 17.8388 84.2446 20.0183C88.2661 20.0561 91.4469 20.1712 94.0593 20.5224C97.8114 21.0269 99.9389 21.9683 101.485 23.5147C103.032 25.0611 103.973 27.1886 104.478 30.9407C104.994 34.779 105 39.8441 105 47V77C105 84.1559 104.994 89.221 104.478 93.0593C103.973 96.8114 103.032 98.9389 101.485 100.485C99.9389 102.032 97.8114 102.973 94.0593 103.478C90.221 103.994 85.1559 104 78 104H48C40.8441 104 35.779 103.994 31.9407 103.478C28.1886 102.973 26.0611 102.032 24.5147 100.485C22.9683 98.9389 22.0269 96.8114 21.5224 93.0593C21.1712 90.4469 21.0561 87.2661 21.0183 83.2446C18.8388 81.5119 16.8236 79.5813 15 77.4799Z" fill="black"/>
</svg>
